<svg width="27" height="25" viewBox="0 0 27 25" fill="none" xmlns="http://www.w3.org/2000/svg">
<path fill-rule="evenodd" clip-rule="evenodd" d="M7.32255 15.6471L4.28327 2.9301H1.93536C1.41885 2.9301 1.0002 2.51145 1.0002 1.99494C1.0002 1.47843 1.41885 1.05978 1.93536 1.05983H5.02141C5.45408 1.05983 5.83035 1.3569 5.93103 1.7777L6.77269 5.29921H25.0652C25.3529 5.29921 25.6244 5.43139 25.8015 5.658C25.9785 5.88461 26.0418 6.17983 25.9729 6.45908L23.6973 15.6549C23.5942 16.072 23.2195 16.365 22.7896 16.365H8.23217C7.7995 16.365 7.42323 16.0683 7.32255 15.6471ZM23.9886 15.7269C23.9886 15.727 23.9886 15.7269 23.9886 15.7269C23.8522 16.2781 23.3573 16.665 22.7896 16.665H8.23217C7.66071 16.665 7.16374 16.2731 7.03077 15.7169L4.04652 3.2301H1.93536C1.25316 3.2301 0.700195 2.67713 0.700195 1.99494C0.700195 1.31276 1.25315 0.759778 1.93536 0.759827C1.93537 0.759827 1.93535 0.759827 1.93536 0.759827H5.02141C5.59298 0.759827 6.08984 1.15221 6.2228 1.70789L7.00944 4.99921H25.0652C25.445 4.99921 25.8038 5.17375 26.0379 5.4733C26.2715 5.77239 26.3551 6.16216 26.2642 6.53089L23.9886 15.7269ZM17.3774 20.823C17.3774 18.9385 18.91 17.4058 20.7946 17.4058C22.6791 17.4058 24.2118 18.9385 24.2118 20.823C24.2118 22.7075 22.6791 24.2402 20.7946 24.2402C18.9101 24.2402 17.3774 22.7075 17.3774 20.823ZM19.8477 20.823C19.8477 21.3449 20.2726 21.7699 20.7946 21.7699C21.3165 21.7699 21.7414 21.3449 21.7414 20.823C21.7414 20.301 21.3165 19.8761 20.7946 19.8761C20.2726 19.8761 19.8477 20.301 19.8477 20.823ZM21.8232 14.1947L23.487 7.46953H7.59981L9.20706 14.1947H21.8232ZM8.97031 14.4947H22.058L23.8703 7.16953H7.21967L8.97031 14.4947ZM6.06183 20.823C6.06183 18.9385 7.59449 17.4058 9.47904 17.4058C11.3635 17.4058 12.8962 18.9385 12.8962 20.823C12.8962 22.7075 11.3635 24.2402 9.47904 24.2402C7.59455 24.2402 6.06183 22.7075 6.06183 20.823ZM8.53216 20.823C8.53216 21.3449 8.95708 21.7699 9.47904 21.7699C10.001 21.7699 10.4259 21.3449 10.4259 20.823C10.4259 20.301 10.001 19.8761 9.47904 19.8761C8.95708 19.8761 8.53216 20.301 8.53216 20.823ZM20.7946 17.7058C19.0757 17.7058 17.6774 19.1042 17.6774 20.823C17.6774 22.5418 19.0758 23.9402 20.7946 23.9402C22.5134 23.9402 23.9118 22.5418 23.9118 20.823C23.9118 19.1042 22.5134 17.7058 20.7946 17.7058ZM20.7946 22.0699C20.1069 22.0699 19.5477 21.5106 19.5477 20.823C19.5477 20.1353 20.1069 19.5761 20.7946 19.5761C21.4822 19.5761 22.0414 20.1353 22.0414 20.823C22.0414 21.5106 21.4822 22.0699 20.7946 22.0699ZM6.36183 20.823C6.36183 19.1042 7.76018 17.7058 9.47904 17.7058C11.1978 17.7058 12.5962 19.1042 12.5962 20.823C12.5962 22.5418 11.1978 23.9402 9.47904 23.9402C7.76023 23.9402 6.36183 22.5418 6.36183 20.823ZM8.23216 20.823C8.23216 21.5106 8.79139 22.0699 9.47904 22.0699C10.1667 22.0699 10.7259 21.5106 10.7259 20.823C10.7259 20.1353 10.1667 19.5761 9.47904 19.5761C8.79139 19.5761 8.23216 20.1353 8.23216 20.823Z" fill="#313131"/>
</svg>
