<svg width="25" height="21" viewBox="0 0 25 21" fill="none" xmlns="http://www.w3.org/2000/svg">
<mask id="path-1-outside-1" maskUnits="userSpaceOnUse" x="0" y="-0.357117" width="25" height="22" fill="black">
<rect fill="white" y="-0.357117" width="25" height="22"/>
<path d="M22.3699 2.23446C21.2832 1.17326 19.7817 0.642883 17.8648 0.642883C17.3343 0.642883 16.793 0.734861 16.2412 0.918725C15.6892 1.10273 15.1757 1.35097 14.7012 1.66327C14.2261 1.97548 13.8178 2.26867 13.4753 2.5424C13.1332 2.81622 12.808 3.10721 12.5 3.41515C12.1919 3.10721 11.8667 2.81622 11.5246 2.5424C11.1822 2.26867 10.7737 1.97566 10.2987 1.66327C9.82385 1.35083 9.31042 1.10277 8.75855 0.918725C8.20674 0.734906 7.66544 0.642883 7.13497 0.642883C5.21824 0.642883 3.71666 1.17339 2.63001 2.23446C1.54337 3.29544 1 4.76707 1 6.64951C1 7.22282 1.1007 7.81343 1.30169 8.42063C1.50268 9.02815 1.73173 9.54589 1.98837 9.97364C2.24498 10.4013 2.53597 10.8184 2.86113 11.2249C3.18628 11.6313 3.42391 11.9115 3.57348 12.0655C3.72318 12.2195 3.84087 12.3308 3.92642 12.3994L11.9352 20.1259C12.0893 20.28 12.2775 20.3572 12.5 20.3572C12.7224 20.3572 12.9108 20.28 13.0647 20.1259L21.0608 12.4247C23.0203 10.4656 24 8.54039 24 6.64933C24 4.76676 23.4567 3.29526 22.3699 2.23446ZM19.9441 11.2185L12.5 18.3931L5.04314 11.2055C3.44302 9.60582 2.64309 8.08684 2.64309 6.64933C2.64309 5.95635 2.73507 5.34447 2.91894 4.8141C3.10294 4.28363 3.33823 3.86209 3.62486 3.54979C3.91154 3.2374 4.26016 2.98305 4.67087 2.7861C5.0818 2.58933 5.48392 2.45667 5.87745 2.38825C6.27099 2.31992 6.69019 2.28571 7.1352 2.28571C7.58007 2.28571 8.05933 2.39468 8.57271 2.61293C9.08601 2.8311 9.55875 3.10492 9.99081 3.4343C10.423 3.76391 10.793 4.07189 11.1012 4.35844C11.4092 4.64525 11.6658 4.90819 11.8712 5.1478C12.0251 5.33611 12.2349 5.43025 12.5 5.43025C12.7653 5.43025 12.9749 5.33611 13.129 5.1478C13.3343 4.90819 13.5911 4.64511 13.8991 4.35844C14.2071 4.07189 14.5772 3.76404 15.0092 3.4343C15.4413 3.10492 15.9141 2.8311 16.4277 2.61293C16.9409 2.39472 17.4202 2.28571 17.8652 2.28571C18.3101 2.28571 18.7292 2.31992 19.1229 2.38825C19.5165 2.45663 19.9187 2.58933 20.3295 2.7861C20.7402 2.983 21.0888 3.23753 21.3754 3.54979C21.662 3.86209 21.8974 4.28363 22.0814 4.8141C22.2651 5.34447 22.3571 5.95635 22.3571 6.64933C22.357 8.08684 21.5528 9.61005 19.9441 11.2185Z"/>
</mask>
<path d="M22.3699 2.23446C21.2832 1.17326 19.7817 0.642883 17.8648 0.642883C17.3343 0.642883 16.793 0.734861 16.2412 0.918725C15.6892 1.10273 15.1757 1.35097 14.7012 1.66327C14.2261 1.97548 13.8178 2.26867 13.4753 2.5424C13.1332 2.81622 12.808 3.10721 12.5 3.41515C12.1919 3.10721 11.8667 2.81622 11.5246 2.5424C11.1822 2.26867 10.7737 1.97566 10.2987 1.66327C9.82385 1.35083 9.31042 1.10277 8.75855 0.918725C8.20674 0.734906 7.66544 0.642883 7.13497 0.642883C5.21824 0.642883 3.71666 1.17339 2.63001 2.23446C1.54337 3.29544 1 4.76707 1 6.64951C1 7.22282 1.1007 7.81343 1.30169 8.42063C1.50268 9.02815 1.73173 9.54589 1.98837 9.97364C2.24498 10.4013 2.53597 10.8184 2.86113 11.2249C3.18628 11.6313 3.42391 11.9115 3.57348 12.0655C3.72318 12.2195 3.84087 12.3308 3.92642 12.3994L11.9352 20.1259C12.0893 20.28 12.2775 20.3572 12.5 20.3572C12.7224 20.3572 12.9108 20.28 13.0647 20.1259L21.0608 12.4247C23.0203 10.4656 24 8.54039 24 6.64933C24 4.76676 23.4567 3.29526 22.3699 2.23446ZM19.9441 11.2185L12.5 18.3931L5.04314 11.2055C3.44302 9.60582 2.64309 8.08684 2.64309 6.64933C2.64309 5.95635 2.73507 5.34447 2.91894 4.8141C3.10294 4.28363 3.33823 3.86209 3.62486 3.54979C3.91154 3.2374 4.26016 2.98305 4.67087 2.7861C5.0818 2.58933 5.48392 2.45667 5.87745 2.38825C6.27099 2.31992 6.69019 2.28571 7.1352 2.28571C7.58007 2.28571 8.05933 2.39468 8.57271 2.61293C9.08601 2.8311 9.55875 3.10492 9.99081 3.4343C10.423 3.76391 10.793 4.07189 11.1012 4.35844C11.4092 4.64525 11.6658 4.90819 11.8712 5.1478C12.0251 5.33611 12.2349 5.43025 12.5 5.43025C12.7653 5.43025 12.9749 5.33611 13.129 5.1478C13.3343 4.90819 13.5911 4.64511 13.8991 4.35844C14.2071 4.07189 14.5772 3.76404 15.0092 3.4343C15.4413 3.10492 15.9141 2.8311 16.4277 2.61293C16.9409 2.39472 17.4202 2.28571 17.8652 2.28571C18.3101 2.28571 18.7292 2.31992 19.1229 2.38825C19.5165 2.45663 19.9187 2.58933 20.3295 2.7861C20.7402 2.983 21.0888 3.23753 21.3754 3.54979C21.662 3.86209 21.8974 4.28363 22.0814 4.8141C22.2651 5.34447 22.3571 5.95635 22.3571 6.64933C22.357 8.08684 21.5528 9.61005 19.9441 11.2185Z" fill="#313131"/>
<path d="M22.3699 2.23446L22.1604 2.4491L22.1604 2.44914L22.3699 2.23446ZM16.2412 0.918725L16.1463 0.634111L16.1463 0.63412L16.2412 0.918725ZM14.7012 1.66327L14.866 1.91397L14.8662 1.91385L14.7012 1.66327ZM13.4753 2.5424L13.288 2.30805L13.2879 2.30818L13.4753 2.5424ZM12.5 3.41515L12.2879 3.62734L12.5 3.83934L12.7121 3.6273L12.5 3.41515ZM11.5246 2.5424L11.712 2.30817L11.7119 2.30808L11.5246 2.5424ZM10.2987 1.66327L10.1339 1.91389L10.1339 1.91392L10.2987 1.66327ZM8.75855 0.918725L8.85347 0.634134L8.85337 0.634102L8.75855 0.918725ZM2.63001 2.23446L2.83959 2.44911L2.8396 2.4491L2.63001 2.23446ZM1.30169 8.42063L1.58651 8.3264L1.58649 8.32636L1.30169 8.42063ZM1.98837 9.97364L2.24563 9.8193L2.24562 9.81929L1.98837 9.97364ZM2.86113 11.2249L2.62686 11.4123L2.62687 11.4123L2.86113 11.2249ZM3.57348 12.0655L3.35826 12.2745L3.35835 12.2746L3.57348 12.0655ZM3.92642 12.3994L4.13471 12.1834L4.12475 12.1738L4.11395 12.1652L3.92642 12.3994ZM11.9352 20.1259L12.1474 19.9137L12.1435 19.91L11.9352 20.1259ZM13.0647 20.1259L12.8566 19.9098L12.8526 19.9138L13.0647 20.1259ZM21.0608 12.4247L21.269 12.6409L21.2729 12.6369L21.0608 12.4247ZM24 6.64933L23.7 6.64932V6.64933H24ZM19.9441 11.2185L20.1524 11.4345L20.1563 11.4306L19.9441 11.2185ZM12.5 18.3931L12.2918 18.6091L12.5 18.8097L12.7082 18.6091L12.5 18.3931ZM5.04314 11.2055L4.831 11.4177L4.83494 11.4215L5.04314 11.2055ZM2.91894 4.8141L2.6355 4.71578L2.63549 4.71583L2.91894 4.8141ZM3.62486 3.54979L3.84588 3.75264L3.8459 3.75263L3.62486 3.54979ZM4.67087 2.7861L4.5413 2.51552L4.54115 2.51559L4.67087 2.7861ZM5.87745 2.38825L5.82613 2.09267L5.82606 2.09268L5.87745 2.38825ZM8.57271 2.61293L8.45534 2.88902L8.45536 2.88903L8.57271 2.61293ZM9.99081 3.4343L10.1727 3.19577L10.1727 3.19572L9.99081 3.4343ZM11.1012 4.35844L11.3056 4.13889L11.3055 4.13874L11.1012 4.35844ZM11.8712 5.1478L12.1035 4.95788L12.0989 4.95255L11.8712 5.1478ZM13.129 5.1478L12.9011 4.95252L12.8968 4.9578L13.129 5.1478ZM13.8991 4.35844L13.6947 4.13878L13.6947 4.13884L13.8991 4.35844ZM15.0092 3.4343L14.8273 3.19571L14.8272 3.19584L15.0092 3.4343ZM16.4277 2.61293L16.5449 2.88905L16.545 2.88901L16.4277 2.61293ZM19.1229 2.38825L19.1742 2.09268L19.1742 2.09267L19.1229 2.38825ZM20.3295 2.7861L20.4591 2.51558L20.459 2.51554L20.3295 2.7861ZM21.3754 3.54979L21.1544 3.75264V3.75264L21.3754 3.54979ZM22.0814 4.8141L22.3649 4.71592L22.3649 4.71578L22.0814 4.8141ZM22.3571 6.64933L22.6571 6.64935V6.64933H22.3571ZM22.5795 2.01982C21.423 0.890492 19.8385 0.342883 17.8648 0.342883V0.942883C19.7249 0.942883 21.1433 1.45603 22.1604 2.4491L22.5795 2.01982ZM17.8648 0.342883C17.2992 0.342883 16.7258 0.441033 16.1463 0.634111L16.336 1.20334C16.8601 1.02869 17.3695 0.942883 17.8648 0.942883V0.342883ZM16.1463 0.63412C15.5702 0.826158 15.033 1.08569 14.5363 1.41268L14.8662 1.91385C15.3183 1.61624 15.8082 1.37929 16.336 1.20333L16.1463 0.63412ZM14.5365 1.41256C14.0556 1.72858 13.6394 2.02722 13.288 2.30805L13.6626 2.77675C13.9963 2.51012 14.3967 2.22237 14.866 1.91397L14.5365 1.41256ZM13.2879 2.30818C12.9372 2.58884 12.6037 2.8872 12.2879 3.203L12.7121 3.6273C13.0122 3.32723 13.3292 3.04359 13.6628 2.77662L13.2879 2.30818ZM12.7121 3.20296C12.3961 2.8872 12.0628 2.58886 11.712 2.30817L11.3371 2.77663C11.6707 3.04358 11.9876 3.32722 12.2879 3.62734L12.7121 3.20296ZM11.7119 2.30808C11.3606 2.02718 10.9442 1.72872 10.4636 1.41262L10.1339 1.91392C10.6032 2.22259 11.0038 2.51016 11.3372 2.77672L11.7119 2.30808ZM10.4636 1.41264C9.96642 1.08553 9.42939 0.826202 8.85347 0.634134L8.66364 1.20332C9.19145 1.37934 9.68127 1.61613 10.1339 1.91389L10.4636 1.41264ZM8.85337 0.634102C8.27394 0.441086 7.70064 0.342883 7.13497 0.342883V0.942883C7.63023 0.942883 8.13953 1.02873 8.66374 1.20335L8.85337 0.634102ZM7.13497 0.342883C5.16144 0.342883 3.57683 0.890633 2.42042 2.01982L2.8396 2.4491C3.85649 1.45615 5.27504 0.942883 7.13497 0.942883V0.342883ZM2.42043 2.01981C1.26274 3.15015 0.7 4.70683 0.7 6.64951H1.3C1.3 4.82732 1.82399 3.44072 2.83959 2.44911L2.42043 2.01981ZM0.7 6.64951C0.7 7.25837 0.806997 7.88082 1.01689 8.51491L1.58649 8.32636C1.3944 7.74604 1.3 7.18726 1.3 6.64951H0.7ZM1.01687 8.51486C1.22299 9.13786 1.46046 9.67688 1.73113 10.128L2.24562 9.81929C2.003 9.41491 1.78238 8.91844 1.58651 8.3264L1.01687 8.51486ZM1.73112 10.128C1.99495 10.5677 2.29369 10.9958 2.62686 11.4123L3.09539 11.0375C2.77824 10.641 2.495 10.235 2.24563 9.8193L1.73112 10.128ZM2.62687 11.4123C2.95212 11.8189 3.19765 12.1091 3.35826 12.2745L3.7887 11.8565C3.65017 11.7138 3.42045 11.4438 3.09538 11.0375L2.62687 11.4123ZM3.35835 12.2746C3.51015 12.4307 3.63833 12.553 3.73889 12.6335L4.11395 12.1652C4.04341 12.1087 3.93621 12.0082 3.7886 11.8564L3.35835 12.2746ZM3.71812 12.6153L11.7269 20.3418L12.1435 19.91L4.13471 12.1834L3.71812 12.6153ZM11.7231 20.3381C11.9346 20.5495 12.1996 20.6572 12.5 20.6572V20.0572C12.3554 20.0572 12.244 20.0104 12.1473 19.9138L11.7231 20.3381ZM12.5 20.6572C12.8002 20.6572 13.0654 20.5496 13.2769 20.338L12.8526 19.9138C12.7561 20.0103 12.6446 20.0572 12.5 20.0572V20.6572ZM13.2728 20.342L21.2689 12.6408L20.8527 12.2087L12.8566 19.9099L13.2728 20.342ZM21.2729 12.6369C23.2626 10.6476 24.3 8.65052 24.3 6.64933H23.7C23.7 8.43026 22.778 10.2836 20.8487 12.2126L21.2729 12.6369ZM24.3 6.64933C24.3 4.70653 23.7373 3.14995 22.5795 2.01978L22.1604 2.44914C23.1761 3.44056 23.7 4.82699 23.7 6.64932L24.3 6.64933ZM19.736 11.0025L12.2918 18.1771L12.7082 18.6091L20.1523 11.4345L19.736 11.0025ZM12.7082 18.1771L5.25133 10.9895L4.83494 11.4215L12.2918 18.6091L12.7082 18.1771ZM5.25524 10.9934C3.68013 9.41866 2.94309 7.9719 2.94309 6.64933H2.34309C2.34309 8.20179 3.20591 9.79298 4.83103 11.4177L5.25524 10.9934ZM2.94309 6.64933C2.94309 5.98226 3.0317 5.40472 3.20239 4.91236L2.63549 4.71583C2.43844 5.28422 2.34309 5.93044 2.34309 6.64933H2.94309ZM3.20237 4.91241C3.37709 4.40871 3.59444 4.02661 3.84588 3.75264L3.40384 3.34694C3.08202 3.69757 2.82879 4.15856 2.6355 4.71578L3.20237 4.91241ZM3.8459 3.75263C4.10479 3.47052 4.42167 3.23831 4.80058 3.05661L4.54115 2.51559C4.09865 2.72779 3.71829 3.00428 3.40383 3.34695L3.8459 3.75263ZM4.80043 3.05668C5.19003 2.87013 5.56592 2.74691 5.92884 2.68382L5.82606 2.09268C5.40192 2.16643 4.97357 2.30854 4.5413 2.51552L4.80043 3.05668ZM5.92877 2.68383C6.30359 2.61875 6.7055 2.58571 7.1352 2.58571V1.98571C6.67488 1.98571 6.23838 2.02109 5.82613 2.09267L5.92877 2.68383ZM7.1352 2.58571C7.53096 2.58571 7.97005 2.68271 8.45534 2.88902L8.69008 2.33685C8.14861 2.10665 7.62917 1.98571 7.1352 1.98571V2.58571ZM8.45536 2.88903C8.94628 3.09768 9.39725 3.35904 9.80893 3.67288L10.1727 3.19572C9.72024 2.8508 9.22573 2.56451 8.69006 2.33684L8.45536 2.88903ZM9.80887 3.67284C10.2354 3.99814 10.5976 4.29982 10.8969 4.57814L11.3055 4.13874C10.9885 3.84397 10.6105 3.52968 10.1727 3.19577L9.80887 3.67284ZM10.8967 4.57798C11.1991 4.85954 11.4473 5.11428 11.6434 5.34304L12.0989 4.95255C11.8843 4.7021 11.6193 4.43095 11.3056 4.13889L10.8967 4.57798ZM11.6389 5.33765C11.8555 5.60263 12.1543 5.73025 12.5 5.73025V5.13025C12.3156 5.13025 12.1947 5.06959 12.1035 4.95794L11.6389 5.33765ZM12.5 5.73025C12.846 5.73025 13.1445 5.60256 13.3611 5.33779L12.8968 4.9578C12.8053 5.06966 12.6845 5.13025 12.5 5.13025V5.73025ZM13.3568 5.34302C13.5528 5.11429 13.8012 4.85944 14.1035 4.57803L13.6947 4.13884C13.381 4.43079 13.1158 4.70209 12.9012 4.95257L13.3568 5.34302ZM14.1034 4.57809C14.4025 4.29983 14.7648 3.99829 15.1912 3.67277L14.8272 3.19584C14.3897 3.5298 14.0117 3.84396 13.6947 4.13878L14.1034 4.57809ZM15.1911 3.6729C15.6028 3.35904 16.0538 3.0977 16.5449 2.88905L16.3104 2.33682C15.7744 2.5645 15.2799 2.85079 14.8273 3.19571L15.1911 3.6729ZM16.545 2.88901C17.0301 2.68275 17.4694 2.58571 17.8652 2.58571V1.98571C17.3711 1.98571 16.8516 2.10669 16.3103 2.33685L16.545 2.88901ZM17.8652 2.58571C18.2948 2.58571 18.6965 2.61874 19.0716 2.68383L19.1742 2.09267C18.7618 2.02109 18.3254 1.98571 17.8652 1.98571V2.58571ZM19.0715 2.68383C19.4345 2.74688 19.8104 2.87012 20.1999 3.05666L20.459 2.51554C20.0269 2.30855 19.5985 2.16638 19.1742 2.09268L19.0715 2.68383ZM20.1998 3.05662C20.5786 3.23824 20.8955 3.47061 21.1544 3.75264L21.5964 3.34694C21.2821 3.00446 20.9018 2.72776 20.4591 2.51558L20.1998 3.05662ZM21.1544 3.75264C21.4059 4.02663 21.6233 4.40874 21.798 4.91241L22.3649 4.71578C22.1716 4.15852 21.9182 3.69755 21.5964 3.34694L21.1544 3.75264ZM21.7979 4.91227C21.9685 5.40469 22.0571 5.98226 22.0571 6.64933H22.6571C22.6571 5.93044 22.5617 5.28426 22.3649 4.71592L21.7979 4.91227ZM22.0571 6.64931C22.057 7.97155 21.3161 9.42251 19.732 11.0063L20.1563 11.4306C21.7896 9.79758 22.657 8.20214 22.6571 6.64935L22.0571 6.64931Z" fill="#313131" mask="url(#path-1-outside-1)"/>
</svg>
