<svg width="373" height="83" viewBox="0 0 373 83" fill="none" xmlns="http://www.w3.org/2000/svg">
<path d="M0.0707092 1.92702H12.1825V53.5765H29.8311V65.0304H0.0707092V1.92702Z" fill="#313131"/>
<path d="M37.7471 18.3571H49.6858V40.8358C49.6858 45.2114 49.9886 48.2572 50.5942 49.9731C51.1998 51.6604 52.1659 52.976 53.4924 53.9197C54.8478 54.8635 56.5059 55.3354 58.4669 55.3354C60.4278 55.3354 62.086 54.8778 63.4414 53.9626C64.8256 53.0189 65.8493 51.6461 66.5126 49.8444C67.0028 48.5003 67.2479 45.6261 67.2479 41.2218V18.3571H79.1002V38.1332C79.1002 46.2838 78.4513 51.8606 77.1536 54.8635C75.5676 58.5241 73.2317 61.3411 70.1461 63.3145C67.0605 65.2592 63.1386 66.2315 58.3804 66.2315C53.2184 66.2315 49.037 65.0876 45.836 62.7997C42.6639 60.5118 40.429 57.323 39.1313 53.2334C38.2085 50.4021 37.7471 45.2543 37.7471 37.79V18.3571Z" fill="#313131"/>
<path d="M88.2273 18.3571H98.3493V24.2341C99.4451 21.9176 100.901 20.1588 102.718 18.9576C104.535 17.7565 106.525 17.1559 108.688 17.1559C110.216 17.1559 111.816 17.5563 113.489 18.3571L109.812 28.4382C108.428 27.7518 107.289 27.4086 106.395 27.4086C104.578 27.4086 103.035 28.524 101.767 30.7547C100.527 32.9854 99.9065 37.361 99.9065 43.8815L99.9498 46.1551V65.0304H88.2273V18.3571Z" fill="#313131"/>
<path d="M166.521 45.0827H128.586C129.133 48.4002 130.59 51.0455 132.954 53.0189C135.348 54.9636 138.39 55.936 142.082 55.936C146.494 55.936 150.286 54.4059 153.458 51.3458L163.407 55.9789C160.927 59.4679 157.957 62.0561 154.496 63.7434C151.036 65.4022 146.926 66.2315 142.168 66.2315C134.786 66.2315 128.773 63.9293 124.13 59.3249C119.487 54.6919 117.166 48.9006 117.166 41.9511C117.166 34.83 119.473 28.9243 124.087 24.2341C128.73 19.5153 134.54 17.1559 141.519 17.1559C148.93 17.1559 154.958 19.5153 159.6 24.2341C164.243 28.9243 166.565 35.1303 166.565 42.852L166.521 45.0827ZM154.669 35.8596C153.891 33.2571 152.348 31.1407 150.041 29.5106C147.763 27.8805 145.109 27.0654 142.082 27.0654C138.794 27.0654 135.91 27.9806 133.43 29.8109C131.873 30.9549 130.431 32.9711 129.105 35.8596H154.669Z" fill="#313131"/>
<path d="M200.564 23.462L196.671 27.4515C193.441 24.3342 190.284 22.7756 187.198 22.7756C185.237 22.7756 183.55 23.4191 182.137 24.706C180.753 25.993 180.061 27.4944 180.061 29.2103C180.061 30.7261 180.637 32.1703 181.791 33.543C182.944 34.9444 185.367 36.5888 189.058 38.4764C193.557 40.7929 196.613 43.0236 198.228 45.1685C199.814 47.342 200.607 49.7872 200.607 52.5041C200.607 56.3363 199.252 59.5823 196.541 62.242C193.831 64.9017 190.442 66.2315 186.376 66.2315C183.665 66.2315 181.07 65.6453 178.59 64.4727C176.139 63.3002 174.106 61.6843 172.491 59.6252L176.297 55.3354C179.383 58.7958 182.656 60.5261 186.117 60.5261C188.539 60.5261 190.601 59.7539 192.302 58.2096C194.004 56.6652 194.854 54.8492 194.854 52.7615C194.854 51.0455 194.292 49.5155 193.167 48.1714C192.043 46.8558 189.505 45.1971 185.554 43.1952C181.315 41.0217 178.431 38.8767 176.903 36.7604C175.375 34.6441 174.61 32.2275 174.61 29.5106C174.61 25.9644 175.822 23.0187 178.244 20.6736C180.695 18.3285 183.781 17.1559 187.501 17.1559C191.826 17.1559 196.181 19.2579 200.564 23.462Z" fill="#313131"/>
<path d="M211.335 0.339783H217.391V26.7222C219.842 23.5192 222.538 21.1311 225.48 19.5582C228.421 17.9567 231.608 17.1559 235.04 17.1559C238.558 17.1559 241.672 18.0425 244.383 19.8156C247.123 21.5887 249.141 23.9767 250.439 26.9796C251.737 29.9539 252.385 34.6298 252.385 41.0074V65.0304H246.33V42.7662C246.33 37.3896 246.113 33.8004 245.681 31.9987C244.931 28.91 243.561 26.5935 241.571 25.0492C239.61 23.4763 237.029 22.6898 233.828 22.6898C230.166 22.6898 226.879 23.8909 223.966 26.2932C221.082 28.6955 219.179 31.6698 218.256 35.2161C217.679 37.504 217.391 41.7366 217.391 47.914V65.0304H211.335V0.339783Z" fill="#313131"/>
<path d="M287.683 17.1559C294.921 17.1559 300.919 19.7584 305.677 24.9634C310.003 29.7108 312.166 35.3305 312.166 41.8224C312.166 48.343 309.873 54.0484 305.288 58.9388C300.732 63.8006 294.863 66.2315 287.683 66.2315C280.473 66.2315 274.576 63.8006 269.991 58.9388C265.434 54.0484 263.156 48.343 263.156 41.8224C263.156 35.3591 265.319 29.7537 269.645 25.0063C274.403 19.7727 280.416 17.1559 287.683 17.1559ZM287.683 23.033C282.665 23.033 278.354 24.8776 274.749 28.5669C271.144 32.2561 269.342 36.7175 269.342 41.9511C269.342 45.3258 270.164 48.4717 271.808 51.3887C273.451 54.3058 275.672 56.5651 278.469 58.1667C281.266 59.7396 284.337 60.5261 287.683 60.5261C291.028 60.5261 294.099 59.7396 296.896 58.1667C299.694 56.5651 301.914 54.3058 303.558 51.3887C305.202 48.4717 306.023 45.3258 306.023 41.9511C306.023 36.7175 304.207 32.2561 300.573 28.5669C296.968 24.8776 292.672 23.033 287.683 23.033Z" fill="#313131"/>
<path d="M323.542 18.3571H329.555V26.9367C331.948 23.6764 334.702 21.2312 337.817 19.6011C340.931 17.971 344.406 17.1559 348.242 17.1559C354.932 17.1559 360.656 19.5439 365.414 24.3199C370.173 29.0959 372.552 34.8443 372.552 41.565C372.552 48.4288 370.187 54.2629 365.458 59.0675C360.757 63.8435 355.076 66.2315 348.415 66.2315C344.666 66.2315 341.22 65.4594 338.076 63.915C334.933 62.3707 332.093 60.0685 329.555 57.0084V82.1039H323.542V18.3571ZM347.766 22.9472C342.517 22.9472 338.091 24.7632 334.486 28.3953C330.91 32.0273 329.122 36.5459 329.122 41.9511C329.122 45.4974 329.915 48.6861 331.501 51.5174C333.116 54.3487 335.409 56.5937 338.379 58.2525C341.378 59.9112 344.536 60.7406 347.852 60.7406C351.111 60.7406 354.168 59.9112 357.023 58.2525C359.906 56.5651 362.199 54.22 363.9 51.2171C365.602 48.2143 366.453 45.0684 366.453 41.7795C366.453 38.4621 365.602 35.3162 363.9 32.3419C362.228 29.3676 359.964 27.0654 357.109 25.4353C354.254 23.7765 351.14 22.9472 347.766 22.9472Z" fill="#313131"/>
</svg>
