<svg width="151" height="154" viewBox="0 0 151 154" fill="none" xmlns="http://www.w3.org/2000/svg">
<path d="M46.8703 99.5604C34.1851 83.5833 43.3471 59.8055 59.3243 47.1203C75.3015 34.435 100.536 30.9035 113.221 46.8807C125.907 62.8593 132.475 106.446 116.498 119.131C100.521 131.816 59.5567 115.539 46.8703 99.5604Z" fill="#E56A77"/>
<path d="M63.1399 35.0392C61.7475 32.95 62.3043 17.8947 62.3043 17.8947C55.1925 20.3441 52.3962 37.843 52.3962 37.843L52.5694 38.0734L52.2844 37.7236C52.2844 37.7236 34.4563 36.2899 30.4584 42.6611C30.4584 42.6611 45.2514 45.5366 46.969 47.3676C46.969 47.3676 34.9099 56.1264 37.5663 67.861L48.7285 58.6066L58.1932 47.0405C59.6035 45.9087 59.8604 46.2323 59.8663 46.2397L74.3861 39.6779L85.4943 30.8585C73.1603 23.7096 63.1399 35.0392 63.1399 35.0392Z" fill="#81BDA4"/>
<path d="M109.665 125.766C92.1073 139.707 49.7431 122.992 36.0431 105.737C22.1521 88.2411 31.9291 62.8207 48.9558 49.3021C65.981 35.7848 92.9562 32.0255 106.847 49.5213C120.547 66.7766 127.224 111.826 109.665 125.766ZM52.4916 53.7555C37.607 65.5733 28.7894 87.456 40.4964 102.201C52.5547 117.389 91.576 132.868 106.13 121.313C120.682 109.759 114.452 68.2446 102.394 53.0571C90.6867 38.312 67.3748 41.9389 52.4916 53.7555Z" fill="#012D3D"/>
<path d="M30.6557 74.3977C29.8986 74.9988 28.9245 75.2228 28.008 74.9098C27.0731 74.592 26.3886 73.8334 26.1701 72.8694C24.1397 63.8954 29.3904 56.5658 33.1537 52.6364C30.0515 51.7256 25.3964 50.6392 21.3004 49.8423C20.3807 49.6625 19.6098 49.0451 19.2364 48.1847C18.8657 47.3245 18.9398 46.3388 19.4386 45.5434C19.9686 44.6991 20.674 43.9261 21.5305 43.246C26.5895 39.2294 36.6112 39.0003 41.3867 39.144C42.3649 34.4442 44.8875 24.9314 49.8991 20.9525C50.7615 20.2677 51.6811 19.7554 52.6293 19.4286C53.5211 19.1222 54.5057 19.2771 55.2611 19.8415C56.0151 20.407 56.4404 21.3085 56.3955 22.2517C56.2166 26.0289 56.17 30.3231 56.2812 33.4657C60.7054 30.3016 68.5858 26.7628 77.731 32.0628C78.5427 32.5365 79.0718 33.3797 79.1394 34.3183C79.2085 35.2558 78.8084 36.1663 78.0722 36.7509L66.964 45.5704C66.8007 45.7 66.6262 45.8095 66.4418 45.9003L52.6057 52.6405C52.3851 52.835 52.0727 53.1 51.606 53.4754L42.3279 64.8134C42.2117 64.9565 42.0444 65.0385 41.9028 65.1558L30.7017 74.3612C30.6854 74.3741 30.672 74.3847 30.6557 74.3977ZM63.6716 40.9237L70.7094 35.336C65.8275 34.2869 61.6469 36.4227 58.7611 38.7139C57.2885 39.883 56.4335 40.8911 56.4254 40.9023C55.8436 41.5869 54.9802 41.9626 54.0876 41.9114C53.1947 41.8628 52.3752 41.3977 51.878 40.6525C50.9483 39.256 50.4895 35.4987 50.5083 29.4502C48.6697 33.1244 47.5269 38.3882 46.8867 41.9653C47.1696 43.0258 47.0267 44.4583 46.1137 45.1831C46.1123 45.1843 46.1123 45.1843 46.1108 45.1855C45.1637 45.9374 43.6716 45.7256 42.6866 45.1403C39.0146 44.9384 33.679 44.9732 29.678 45.9329C35.7411 47.3753 39.3321 48.6579 40.4897 49.8904C41.0473 50.486 41.2984 51.2595 41.2214 52.0709C41.1429 52.8835 40.711 53.6137 40.0483 54.0866L39.7701 54.2881C38.4341 55.3488 32.9437 60.0323 31.687 66.3231L38.1018 61.0025L47.3941 49.6459C47.5196 49.4931 47.6598 49.3527 47.8142 49.2301C48.4728 48.7 48.7629 48.4527 48.8897 48.335C49.1263 48.0843 49.4112 47.8702 49.7241 47.7186L63.6716 40.9237Z" fill="#012D3D"/>
<path d="M50.4903 90.948C51.5723 92.3107 51.3447 94.292 49.9835 95.3728C48.6208 96.4547 46.6409 96.226 45.559 94.8633C44.4782 93.502 44.7043 91.5219 46.067 90.4399C47.4283 89.3592 49.4096 89.5867 50.4903 90.948Z" fill="#012D3D"/>
<path d="M65.2874 79.1997C66.3694 80.5624 66.1433 82.5425 64.7806 83.6245C63.4193 84.7053 61.438 84.4777 60.356 83.115C59.2753 81.7537 59.5028 79.7724 60.8641 78.6916C62.2268 77.6097 64.2066 77.8384 65.2874 79.1997Z" fill="#012D3D"/>
<path d="M80.086 67.4504C81.1679 68.8132 80.9403 70.7945 79.5776 71.8764C78.2164 72.9572 76.2351 72.7296 75.1531 71.3669C74.0723 70.0057 74.2999 68.0244 75.6611 66.9436C77.0239 65.8616 79.0052 66.0892 80.086 67.4504Z" fill="#012D3D"/>
<path d="M94.8831 55.702C95.9651 57.0647 95.7375 59.046 94.3763 60.1268C93.0136 61.2087 91.0308 60.9823 89.9488 59.6196C88.868 58.2584 89.0971 56.2759 90.4598 55.1939C91.821 54.1131 93.8024 54.3407 94.8831 55.702Z" fill="#012D3D"/>
<path d="M66.2055 97.2346C67.2874 98.5973 67.0599 100.579 65.6971 101.661C64.3359 102.741 62.3546 102.514 61.2726 101.151C60.1919 99.7898 60.4194 97.8085 61.7807 96.7277C63.1434 95.6458 65.1247 95.8733 66.2055 97.2346Z" fill="#012D3D"/>
<path d="M81.0028 85.4858C82.0848 86.8486 81.8572 88.8299 80.496 89.9107C79.1332 90.9926 77.1519 90.7651 76.07 89.4023C74.9892 88.0411 75.2168 86.0598 76.5795 84.9778C77.9407 83.897 79.922 84.1246 81.0028 85.4858Z" fill="#012D3D"/>
<path d="M95.7999 73.7376C96.8818 75.1003 96.6528 77.0828 95.2916 78.1636C93.9303 79.2443 91.949 79.0168 90.8671 77.654C89.7863 76.2928 90.0138 74.3115 91.3751 73.2307C92.7363 72.1499 94.7191 72.3763 95.7999 73.7376Z" fill="#012D3D"/>
<path d="M48.4923 74.9247C49.5731 76.286 49.3455 78.2673 47.9828 79.3493C46.6215 80.43 44.6402 80.2025 43.5594 78.8412C42.4775 77.4785 42.7062 75.4987 44.0675 74.4179C45.4302 73.3359 47.4103 73.562 48.4923 74.9247Z" fill="#012D3D"/>
<path d="M63.2896 63.1762C64.3704 64.5375 64.1429 66.5188 62.7816 67.5995C61.4189 68.6815 59.4376 68.4539 58.3568 67.0927C57.2748 65.73 57.5036 63.7501 58.8663 62.6682C60.2276 61.5874 62.2077 61.8135 63.2896 63.1762Z" fill="#012D3D"/>
<path d="M78.0867 51.428C79.1675 52.7892 78.9384 54.7717 77.5772 55.8525C76.2159 56.9333 74.2346 56.7057 73.1539 55.3445C72.0719 53.9817 72.3006 52.0019 73.6619 50.9211C75.0231 49.8404 77.0048 50.0653 78.0867 51.428Z" fill="#012D3D"/>
<path d="M84.5303 106.81C85.6122 108.173 85.3835 110.153 84.0222 111.234C82.6595 112.316 80.6794 112.09 79.5974 110.727C78.5166 109.366 78.7442 107.384 80.1069 106.302C81.4682 105.222 83.4495 105.449 84.5303 106.81Z" fill="#012D3D"/>
<path d="M99.3256 95.0634C100.408 96.4262 100.18 98.4048 98.8175 99.4868C97.4563 100.568 95.4762 100.341 94.3942 98.9787C93.3134 97.6175 93.541 95.6362 94.9022 94.5554C96.265 93.4735 98.2448 93.7022 99.3256 95.0634Z" fill="#012D3D"/>
<path d="M101.889 111.792C102.971 113.155 102.742 115.135 101.381 116.215C100.018 117.297 98.038 117.071 96.956 115.709C95.8752 114.347 96.1028 112.366 97.4655 111.284C98.8267 110.203 100.808 110.431 101.889 111.792Z" fill="#012D3D"/>
</svg>
